<svg width="150" height="150" viewBox="0 0 150 150" fill="none" xmlns="http://www.w3.org/2000/svg">
<g clip-path="url(#clip0_101_1038)">
<path d="M74.9993 11.9907C40.2011 11.9907 11.9902 40.2019 11.9902 75.0007C11.9902 109.798 40.2008 138.009 74.9993 138.009C109.798 138.009 138.008 109.798 138.008 75.0007C138.008 40.2019 109.798 11.9907 74.9993 11.9907Z" fill="#EEFDF0"/>
<path d="M74.9997 0.292969C33.806 0.292969 0.292969 33.8063 0.292969 75.0006C0.292969 116.194 33.806 149.707 74.9997 149.707C116.193 149.707 149.707 116.194 149.707 75.0006C149.707 33.8063 116.193 0.292969 74.9997 0.292969ZM74.9997 147.314C35.1258 147.314 2.68623 114.874 2.68623 75.0006C2.68623 35.1264 35.1258 2.68623 74.9997 2.68623C114.873 2.68623 147.314 35.1264 147.314 75.0006C147.314 114.874 114.873 147.314 74.9997 147.314Z" fill="#B9F8C1"/>
<path d="M115 75C115 97.0909 97.0909 115 75 115C52.9091 115 35 97.0909 35 75C35 52.9091 52.9091 35 75 35C97.0909 35 115 52.9091 115 75Z" fill="#4FAF5A"/>
<mask id="mask0_101_1038" style="mask-type:alpha" maskUnits="userSpaceOnUse" x="35" y="35" width="80" height="80">
<path d="M115 75C115 97.0909 97.0909 115 75 115C52.9091 115 35 97.0909 35 75C35 52.9091 52.9091 35 75 35C97.0909 35 115 52.9091 115 75Z" fill="#27AE60"/>
</mask>
<g mask="url(#mask0_101_1038)">
<path d="M68 90L67.5 86L77.5 78L94 62L119.5 90L109 99L90 116.5L68 90Z" fill="#4FAF5A"/>
</g>
<path d="M67.9437 90L55.3051 77.6238C53.565 75.9363 53.565 73.2016 55.3051 71.5152C57.0452 69.8288 59.8671 69.8288 61.6083 71.5152L68.4966 78.31L88.6849 62.0028C90.5763 60.4735 93.3895 60.7213 94.9653 62.5554C96.5433 64.3884 96.2875 67.1147 94.3951 68.6419L67.9437 90Z" fill="white"/>
</g>
<defs>
<clipPath id="clip0_101_1038">
<rect width="150" height="150" fill="white"/>
</clipPath>
</defs>
</svg>
