<svg width="32" height="32" viewBox="0 0 32 32" fill="none" xmlns="http://www.w3.org/2000/svg">
<rect width="32" height="32" rx="16" fill="#F1F5F9"/>
<path fill-rule="evenodd" clip-rule="evenodd" d="M9.01528 14.307L9.39028 19.307C9.51993 21.3655 11.2149 22.9758 13.2773 23H18.7293C20.7921 22.9763 22.4876 21.3659 22.6173 19.307L22.9923 14.307C23.0889 13.2103 22.7245 12.1229 21.9867 11.3057C21.2488 10.4886 20.2041 10.0155 19.1033 10H12.9033C11.8026 10.0158 10.7582 10.489 10.0205 11.3061C9.28293 12.1232 8.91871 13.2105 9.01528 14.307Z" stroke="#475569" stroke-width="1.5" stroke-linecap="round" stroke-linejoin="round"/>
<path d="M19.0033 14C19.0033 15.0718 18.4315 16.0622 17.5033 16.5981C16.5751 17.134 15.4315 17.134 14.5033 16.5981C13.5751 16.0622 13.0033 15.0718 13.0033 14" stroke="#475569" stroke-width="1.5" stroke-linecap="round" stroke-linejoin="round"/>
</svg>
