<svg width="32" height="32" viewBox="0 0 32 32" fill="none" xmlns="http://www.w3.org/2000/svg">
<path fill-rule="evenodd" clip-rule="evenodd" d="M6.66663 15.9998C6.66646 19.4838 8.60678 22.6779 11.6988 24.2834C14.7907 25.889 18.5196 25.6388 21.3693 23.6345L25.3333 23.9998V15.9998C25.3333 10.8452 21.1546 6.6665 16 6.6665C10.8453 6.6665 6.66663 10.8452 6.66663 15.9998Z" stroke="#AFAFAF" stroke-width="1.5" stroke-linecap="round" stroke-linejoin="round"/>
<path d="M12 17.9165C11.5858 17.9165 11.25 18.2523 11.25 18.6665C11.25 19.0807 11.5858 19.4165 12 19.4165V17.9165ZM17.3333 19.4165C17.7475 19.4165 18.0833 19.0807 18.0833 18.6665C18.0833 18.2523 17.7475 17.9165 17.3333 17.9165V19.4165ZM12 13.9165C11.5858 13.9165 11.25 14.2523 11.25 14.6665C11.25 15.0807 11.5858 15.4165 12 15.4165V13.9165ZM20 15.4165C20.4142 15.4165 20.75 15.0807 20.75 14.6665C20.75 14.2523 20.4142 13.9165 20 13.9165V15.4165ZM12 19.4165H17.3333V17.9165H12V19.4165ZM12 15.4165H20V13.9165H12V15.4165Z" fill="#AFAFAF"/>
</svg>
