<svg width="24" height="24" viewBox="0 0 24 24" fill="none" xmlns="http://www.w3.org/2000/svg">
<path fill-rule="evenodd" clip-rule="evenodd" d="M8.44614 4.99995L12.7541 4.99995C13.6731 5.00498 14.5525 5.37487 15.1987 6.02825C15.845 6.68163 16.2052 7.56497 16.2001 8.48395V12.716C16.2052 13.6349 15.845 14.5183 15.1987 15.1717C14.5525 15.825 13.6731 16.1949 12.7541 16.2H8.44614C7.52716 16.1949 6.64782 15.825 6.00157 15.1717C5.35531 14.5183 4.99509 13.6349 5.00014 12.716L5.00014 8.48495C4.99483 7.5658 5.35493 6.6822 6.00121 6.0286C6.6475 5.375 7.52699 5.00498 8.44614 4.99995Z" stroke="#FF5F00" stroke-width="1.5" stroke-linecap="round" stroke-linejoin="round"/>
<path d="M9.66671 19H14.4367C16.9853 18.9709 19.028 16.8816 18.9997 14.333V9.666" stroke="#FF5F00" stroke-width="1.5" stroke-linecap="round" stroke-linejoin="round"/>
</svg>
