<svg width="32" height="32" viewBox="0 0 32 32" fill="none" xmlns="http://www.w3.org/2000/svg">
<path fill-rule="evenodd" clip-rule="evenodd" d="M16 16C17.1046 16 18 15.1046 18 14C18 12.8954 17.1046 12 16 12C14.8954 12 14 12.8954 14 14C14 15.1046 14.8954 16 16 16V16Z" stroke="#AFAFAF" stroke-width="1.5" stroke-linecap="round" stroke-linejoin="round"/>
<path fill-rule="evenodd" clip-rule="evenodd" d="M16 6.6665C15.6132 6.66665 15.2314 6.75368 14.8827 6.92117L8.00001 11.1758V19.5385C7.94335 21.9432 9.84478 23.9395 12.2493 23.9998H19.7507C22.1552 23.9395 24.0567 21.9432 24 19.5385V11.1758L17.1173 6.92117C16.7687 6.75368 16.3868 6.66665 16 6.6665Z" stroke="#AFAFAF" stroke-width="1.5" stroke-linecap="round" stroke-linejoin="round"/>
<path d="M13.8744 18.1471C13.5876 17.8483 13.1128 17.8385 12.814 18.1253C12.5151 18.4121 12.5054 18.8869 12.7922 19.1858L13.8744 18.1471ZM19.2078 19.1858C19.4946 18.8869 19.4848 18.4121 19.1859 18.1253C18.8871 17.8385 18.4123 17.8483 18.1255 18.1471L19.2078 19.1858ZM8.39424 11.8138C8.7466 11.596 8.85571 11.1339 8.63796 10.7815C8.4202 10.4291 7.95803 10.32 7.60568 10.5378L8.39424 11.8138ZM6.27234 11.3618C5.91999 11.5795 5.81087 12.0417 6.02863 12.3941C6.24638 12.7464 6.70855 12.8555 7.06091 12.6378L6.27234 11.3618ZM24.3942 10.5378C24.0419 10.32 23.5797 10.4291 23.362 10.7815C23.1442 11.1339 23.2533 11.596 23.6057 11.8138L24.3942 10.5378ZM24.939 12.6378C25.2914 12.8555 25.7535 12.7464 25.9713 12.3941C26.189 12.0417 26.0799 11.5795 25.7276 11.3618L24.939 12.6378ZM12.7922 19.1858C13.6306 20.0594 14.7891 20.5533 16 20.5533V19.0533C15.1976 19.0533 14.43 18.726 13.8744 18.1471L12.7922 19.1858ZM16 20.5533C17.2108 20.5533 18.3693 20.0594 19.2078 19.1858L18.1255 18.1471C17.5699 18.726 16.8023 19.0533 16 19.0533V20.5533ZM7.60568 10.5378L6.27234 11.3618L7.06091 12.6378L8.39424 11.8138L7.60568 10.5378ZM23.6057 11.8138L24.939 12.6378L25.7276 11.3618L24.3942 10.5378L23.6057 11.8138Z" fill="#AFAFAF"/>
</svg>
