<svg width="24" height="24" viewBox="0 0 24 24" fill="none" xmlns="http://www.w3.org/2000/svg">
<g clip-path="url(#clip0_32_1595)">
<path d="M21.02 5.00012H19V2.98012C19 2.44012 18.56 2.00012 18.02 2.00012H17.99C17.44 2.00012 17 2.44012 17 2.98012V5.00012H14.99C14.45 5.00012 14.01 5.44012 14 5.98012V6.01012C14 6.56012 14.44 7.00012 14.99 7.00012H17V9.01012C17 9.55012 17.44 10.0001 17.99 9.99012H18.02C18.56 9.99012 19 9.55012 19 9.01012V7.00012H21.02C21.56 7.00012 22 6.56012 22 6.02012V5.98012C22 5.44012 21.56 5.00012 21.02 5.00012ZM16 9.01012V8.00012H14.99C14.46 8.00012 13.96 7.79012 13.58 7.42012C13.21 7.04012 13 6.54012 13 5.98012C13 5.62012 13.1 5.29012 13.27 5.00012H5C3.9 5.00012 3 5.90012 3 7.00012V19.0001C3 20.1001 3.9 21.0001 5 21.0001H17C18.1 21.0001 19 20.1001 19 19.0001V10.7201C18.7 10.8901 18.36 11.0001 17.98 11.0001C16.89 10.9901 16 10.1001 16 9.01012ZM15.96 19.0001H6C5.59 19.0001 5.35 18.5301 5.6 18.2001L7.58 15.5701C7.79 15.2901 8.2 15.3101 8.4 15.5901L10 18.0001L12.61 14.5201C12.81 14.2601 13.2 14.2501 13.4 14.5101L16.35 18.1901C16.61 18.5201 16.38 19.0001 15.96 19.0001Z" fill="#FF5F00"/>
</g>
<defs>
<clipPath id="clip0_32_1595">
<rect width="24" height="24" fill="white"/>
</clipPath>
</defs>
</svg>
