<svg width="41" height="41" viewBox="0 0 41 41" fill="none" xmlns="http://www.w3.org/2000/svg">
<circle cx="20.5" cy="20.5" r="20.5" fill="#FF5F00"/>
<path fill-rule="evenodd" clip-rule="evenodd" d="M16.5417 15.75H20.5C22.2489 15.75 23.6667 17.1678 23.6667 18.9167V19.0156L25.2025 18.0553C25.6906 17.7503 26.3058 17.7341 26.8092 18.0131C27.3126 18.2922 27.625 18.8224 27.625 19.398V21.602C27.6262 22.1781 27.3143 22.7095 26.8106 22.9893C26.307 23.2691 25.6911 23.2532 25.2025 22.9478L23.6667 21.9844V22.0833C23.6667 23.8322 22.2489 25.25 20.5 25.25H16.5417C14.7928 25.25 13.375 23.8322 13.375 22.0833V18.9167C13.375 17.1678 14.7928 15.75 16.5417 15.75Z" stroke="white" stroke-width="1.5" stroke-linecap="round" stroke-linejoin="round"/>
<path d="M24.4167 19.0156C24.4167 18.6014 24.0809 18.2656 23.6667 18.2656C23.2525 18.2656 22.9167 18.6014 22.9167 19.0156H24.4167ZM22.9167 21.9844C22.9167 22.3986 23.2525 22.7344 23.6667 22.7344C24.0809 22.7344 24.4167 22.3986 24.4167 21.9844H22.9167ZM19.2708 18.9167C19.2708 18.5024 18.935 18.1667 18.5208 18.1667C18.1066 18.1667 17.7708 18.5024 17.7708 18.9167H19.2708ZM17.7708 20.5C17.7708 20.9142 18.1066 21.25 18.5208 21.25C18.935 21.25 19.2708 20.9142 19.2708 20.5H17.7708ZM19.2708 20.5C19.2708 20.0858 18.935 19.75 18.5208 19.75C18.1066 19.75 17.7708 20.0858 17.7708 20.5H19.2708ZM17.7708 22.0833C17.7708 22.4975 18.1066 22.8333 18.5208 22.8333C18.935 22.8333 19.2708 22.4975 19.2708 22.0833H17.7708ZM18.5208 21.25C18.935 21.25 19.2708 20.9142 19.2708 20.5C19.2708 20.0858 18.935 19.75 18.5208 19.75V21.25ZM16.9375 19.75C16.5233 19.75 16.1875 20.0858 16.1875 20.5C16.1875 20.9142 16.5233 21.25 16.9375 21.25V19.75ZM18.5208 19.75C18.1066 19.75 17.7708 20.0858 17.7708 20.5C17.7708 20.9142 18.1066 21.25 18.5208 21.25V19.75ZM20.1042 21.25C20.5184 21.25 20.8542 20.9142 20.8542 20.5C20.8542 20.0858 20.5184 19.75 20.1042 19.75V21.25ZM22.9167 19.0156V21.9844H24.4167V19.0156H22.9167ZM17.7708 18.9167V20.5H19.2708V18.9167H17.7708ZM17.7708 20.5V22.0833H19.2708V20.5H17.7708ZM18.5208 19.75H16.9375V21.25H18.5208V19.75ZM18.5208 21.25H20.1042V19.75H18.5208V21.25Z" fill="white"/>
</svg>
