<svg width="32" height="32" viewBox="0 0 32 32" fill="none" xmlns="http://www.w3.org/2000/svg">
<path fill-rule="evenodd" clip-rule="evenodd" d="M6.66663 13.3333V21.3333C6.66663 24.2789 9.05444 26.6667 12 26.6667H20C22.9455 26.6667 25.3333 24.2789 25.3333 21.3333V13.3333C25.3333 10.3878 22.9455 8 20 8H12C9.05444 8 6.66663 10.3878 6.66663 13.3333Z" stroke="#AFAFAF" stroke-width="1.5" stroke-linecap="round" stroke-linejoin="round"/>
<path d="M17.9167 9.3335C17.9167 9.74771 18.2525 10.0835 18.6667 10.0835C19.0809 10.0835 19.4167 9.74771 19.4167 9.3335H17.9167ZM19.4167 5.3335C19.4167 4.91928 19.0809 4.5835 18.6667 4.5835C18.2525 4.5835 17.9167 4.91928 17.9167 5.3335H19.4167ZM12.5833 9.3335C12.5833 9.74771 12.9191 10.0835 13.3333 10.0835C13.7475 10.0835 14.0833 9.74771 14.0833 9.3335H12.5833ZM14.0833 5.3335C14.0833 4.91928 13.7475 4.5835 13.3333 4.5835C12.9191 4.5835 12.5833 4.91928 12.5833 5.3335H14.0833ZM20 14.0835C20.4142 14.0835 20.75 13.7477 20.75 13.3335C20.75 12.9193 20.4142 12.5835 20 12.5835V14.0835ZM12 12.5835C11.5858 12.5835 11.25 12.9193 11.25 13.3335C11.25 13.7477 11.5858 14.0835 12 14.0835V12.5835ZM20 18.0835C20.4142 18.0835 20.75 17.7477 20.75 17.3335C20.75 16.9193 20.4142 16.5835 20 16.5835V18.0835ZM12 16.5835C11.5858 16.5835 11.25 16.9193 11.25 17.3335C11.25 17.7477 11.5858 18.0835 12 18.0835V16.5835ZM16 22.0835C16.4142 22.0835 16.75 21.7477 16.75 21.3335C16.75 20.9193 16.4142 20.5835 16 20.5835V22.0835ZM12 20.5835C11.5858 20.5835 11.25 20.9193 11.25 21.3335C11.25 21.7477 11.5858 22.0835 12 22.0835V20.5835ZM19.4167 9.3335V5.3335H17.9167V9.3335H19.4167ZM14.0833 9.3335V5.3335H12.5833V9.3335H14.0833ZM20 12.5835H12V14.0835H20V12.5835ZM20 16.5835H12V18.0835H20V16.5835ZM16 20.5835H12V22.0835H16V20.5835Z" fill="#AFAFAF"/>
</svg>
