<svg width="24" height="24" viewBox="0 0 24 24" fill="none" xmlns="http://www.w3.org/2000/svg">
<path fill-rule="evenodd" clip-rule="evenodd" d="M14.692 6H9.30802C6.92198 6.00717 4.99338 7.94696 5.00002 10.333V14.667C4.99338 17.053 6.92198 18.9928 9.30802 19H14.692C17.0781 18.9928 19.0067 17.053 19 14.667V10.333C19.0067 7.94696 17.0781 6.00717 14.692 6Z" stroke="#FF5F00" stroke-width="1.5" stroke-linecap="round" stroke-linejoin="round"/>
<path d="M7.75 15.5C7.75 15.9142 8.08579 16.25 8.5 16.25C8.91421 16.25 9.25 15.9142 9.25 15.5H7.75ZM9.25 11.5C9.25 11.0858 8.91421 10.75 8.5 10.75C8.08579 10.75 7.75 11.0858 7.75 11.5H9.25ZM11.25 15.5C11.25 15.9142 11.5858 16.25 12 16.25C12.4142 16.25 12.75 15.9142 12.75 15.5H11.25ZM12.75 9.5C12.75 9.08579 12.4142 8.75 12 8.75C11.5858 8.75 11.25 9.08579 11.25 9.5H12.75ZM14.75 15.5C14.75 15.9142 15.0858 16.25 15.5 16.25C15.9142 16.25 16.25 15.9142 16.25 15.5H14.75ZM16.25 11.5C16.25 11.0858 15.9142 10.75 15.5 10.75C15.0858 10.75 14.75 11.0858 14.75 11.5H16.25ZM9.25 15.5V11.5H7.75V15.5H9.25ZM12.75 15.5V9.5H11.25V15.5H12.75ZM16.25 15.5V11.5H14.75V15.5H16.25Z" fill="#FF5F00"/>
</svg>
