<svg width="32" height="32" viewBox="0 0 32 32" fill="none" xmlns="http://www.w3.org/2000/svg">
<path fill-rule="evenodd" clip-rule="evenodd" d="M12.5574 13.3341H8.77608C8.22124 13.3294 7.6873 13.5454 7.29172 13.9345C6.89614 14.3236 6.67133 14.8539 6.66675 15.4087V23.2607C6.67701 24.4156 7.6212 25.3437 8.77608 25.3341H12.5574C13.1123 25.3387 13.6462 25.1227 14.0418 24.7336C14.4374 24.3445 14.6622 23.8142 14.6667 23.2594V15.4087C14.6622 14.8539 14.4374 14.3236 14.0418 13.9345C13.6462 13.5454 13.1123 13.3294 12.5574 13.3341Z" stroke="#AFAFAF" stroke-width="1.5" stroke-linecap="round" stroke-linejoin="round"/>
<path fill-rule="evenodd" clip-rule="evenodd" d="M12.5574 5.33406H8.77608C7.64442 5.30267 6.70086 6.19314 6.66675 7.32472V8.67672C6.70086 9.8083 7.64442 10.6988 8.77608 10.6674H12.5574C13.6891 10.6988 14.6326 9.8083 14.6667 8.67672V7.32472C14.6326 6.19314 13.6891 5.30267 12.5574 5.33406Z" stroke="#AFAFAF" stroke-width="1.5" stroke-linecap="round" stroke-linejoin="round"/>
<path fill-rule="evenodd" clip-rule="evenodd" d="M19.4428 17.3341H23.2228C23.7779 17.339 24.3122 17.1232 24.7081 16.7341C25.1039 16.345 25.3289 15.8145 25.3335 15.2594V7.40872C25.3289 6.85388 25.1041 6.32359 24.7085 5.93451C24.3129 5.54543 23.779 5.32944 23.2242 5.33406H19.4428C18.888 5.32944 18.354 5.54543 17.9585 5.93451C17.5629 6.32359 17.3381 6.85388 17.3335 7.40872V15.2594C17.3381 15.8142 17.5629 16.3445 17.9585 16.7336C18.354 17.1227 18.888 17.3387 19.4428 17.3341Z" stroke="#AFAFAF" stroke-width="1.5" stroke-linecap="round" stroke-linejoin="round"/>
<path fill-rule="evenodd" clip-rule="evenodd" d="M19.4428 25.3341H23.2228C24.355 25.3663 25.2994 24.4756 25.3335 23.3435V21.9915C25.2994 20.8599 24.3558 19.9694 23.2242 20.0008H19.4428C18.3112 19.9694 17.3676 20.8599 17.3335 21.9915V23.3421C17.3669 24.4742 18.3107 25.3655 19.4428 25.3341Z" stroke="#AFAFAF" stroke-width="1.5" stroke-linecap="round" stroke-linejoin="round"/>
</svg>
