<svg width="20" height="20" viewBox="0 0 20 20" fill="none" xmlns="http://www.w3.org/2000/svg">
<path fill-rule="evenodd" clip-rule="evenodd" d="M9.77349 18.2612C9.86578 18.3094 9.96897 18.334 10.0722 18.3331C10.1754 18.3323 10.2777 18.307 10.3708 18.258L13.3441 16.6686C14.1872 16.2191 14.8475 15.7166 15.3626 15.1315C16.4826 13.8567 17.0942 12.2297 17.0833 10.552L17.048 5.01816C17.0447 4.38076 16.626 3.81201 16.0069 3.60527L10.4757 1.74947C10.1426 1.6367 9.77769 1.63916 9.4505 1.75519L3.94029 3.67718C3.3245 3.8921 2.91341 4.46493 2.91677 5.10314L2.952 10.6329C2.96291 12.313 3.59548 13.9327 4.73393 15.1944C5.25408 15.7713 5.9202 16.2665 6.77258 16.7086L9.77349 18.2612ZM8.98639 11.7573C9.11055 11.8766 9.27163 11.9354 9.43271 11.9338C9.59379 11.933 9.75403 11.8725 9.87651 11.7516L13.1258 8.54825C13.3699 8.30718 13.3674 7.91985 13.1207 7.68205C12.8732 7.44425 12.4747 7.44589 12.2306 7.68695L9.42348 10.4539L8.27412 9.34908C8.02663 9.11128 7.62897 9.11373 7.384 9.3548C7.13986 9.59586 7.14238 9.9832 7.38987 10.221L8.98639 11.7573Z" fill="#FF5F00"/>
</svg>
