<svg width="83" height="83" viewBox="0 0 83 83" fill="none" xmlns="http://www.w3.org/2000/svg">
<circle cx="41.5" cy="41.5" r="41.5" fill="#E2E8F0"/>
<g clip-path="url(#clip0_17_656)">
<path d="M50.0081 35.8275H44.7352L43.6704 34.0388C43.5663 33.8639 43.3778 33.7568 43.1743 33.7568H39.8255C39.622 33.7568 39.4335 33.8639 39.3294 34.0388L38.2646 35.8275H36.5344V35.4333C36.5344 35.1144 36.2759 34.8559 35.957 34.8559H33.8207C33.5018 34.8559 33.2433 35.1144 33.2433 35.4333V35.8275H32.9918C32.1899 35.8275 31.54 36.4776 31.54 37.2793V47.7911C31.54 48.5929 32.1899 49.2429 32.9918 49.2429H50.0081C50.8099 49.2429 51.4599 48.5929 51.4599 47.7911V37.2793C51.46 36.4776 50.8099 35.8275 50.0081 35.8275ZM41.4999 46.6677C39.2176 46.6677 37.3674 44.8176 37.3674 42.5351C37.3674 40.2529 39.2176 38.4026 41.4999 38.4026C43.7823 38.4026 45.6324 40.2529 45.6324 42.5351C45.6324 44.8176 43.7823 46.6677 41.4999 46.6677ZM49.1022 38.8207H47.2931C46.9742 38.8207 46.7157 38.5622 46.7157 38.2433C46.7157 37.9244 46.9742 37.6659 47.2931 37.6659H49.1022C49.4212 37.6659 49.6797 37.9244 49.6797 38.2433C49.6797 38.5622 49.4212 38.8207 49.1022 38.8207Z" fill="#FF5F00"/>
<path d="M41.4997 45.4221C43.0942 45.4221 44.3867 44.1295 44.3867 42.5351C44.3867 40.9407 43.0942 39.6481 41.4997 39.6481C39.9053 39.6481 38.6127 40.9407 38.6127 42.5351C38.6127 44.1295 39.9053 45.4221 41.4997 45.4221Z" fill="#FF5F00"/>
</g>
<defs>
<clipPath id="clip0_17_656">
<rect width="19.92" height="19.92" fill="white" transform="translate(31.54 31.54)"/>
</clipPath>
</defs>
</svg>
